<svg width="46" height="50" viewBox="0 0 46 50" fill="none" xmlns="http://www.w3.org/2000/svg">
<path d="M36.9766 7.13672C35.6023 7.13672 34.4234 6.2872 33.9356 5.08594H31.0703V2.625H33.9356C34.4234 1.42373 35.6023 0.574219 36.9766 0.574219C38.7858 0.574219 40.2578 2.04619 40.2578 3.85547C40.2578 5.66475 38.7858 7.13672 36.9766 7.13672Z" fill="white"/>
<path d="M42.7188 14.1094C42.1794 14.1094 41.6706 13.9778 41.2212 13.7462L38.1745 16.2852C37.9533 16.4694 37.6746 16.5703 37.3867 16.5703H31.0703V14.1094H36.9412L39.6126 11.8832C39.4997 11.5519 39.4375 11.1973 39.4375 10.8281C39.4375 9.01884 40.9095 7.54688 42.7188 7.54688C44.528 7.54688 46 9.01884 46 10.8281C46 12.6374 44.528 14.1094 42.7188 14.1094Z" fill="white"/>
<path d="M42.7188 24.3633C41.3445 24.3633 40.1656 23.5138 39.6778 22.3125H31.0703V19.8516H39.6778C40.1656 18.6503 41.3445 17.8008 42.7188 17.8008C44.528 17.8008 46 19.2728 46 21.082C46 22.8913 44.528 24.3633 42.7188 24.3633Z" fill="white"/>
<path d="M38.1745 25.879L41.2212 28.4179C41.6706 28.1863 42.1794 28.0547 42.7188 28.0547C44.528 28.0547 46 29.5267 46 31.3359C46 33.1452 44.528 34.6172 42.7188 34.6172C40.9095 34.6172 39.4375 33.1452 39.4375 31.3359C39.4375 30.9668 39.4997 30.6122 39.6126 30.2809L36.9412 28.0547H31.0703V25.5938H37.3867C37.6746 25.5938 37.9533 25.6946 38.1745 25.879Z" fill="white"/>
<path d="M36.9766 35.0273C38.7858 35.0273 40.2578 36.4993 40.2578 38.3086C40.2578 40.1179 38.7858 41.5898 36.9766 41.5898C35.6023 41.5898 34.4234 40.7403 33.9356 39.5391H31.0703V37.0781H33.9356C34.4234 35.8769 35.6023 35.0273 36.9766 35.0273Z" fill="white"/>
<path d="M16.3047 21.082C16.3047 16.3327 20.1686 12.4688 24.918 12.4688C26.2383 12.4688 27.4899 12.7678 28.6094 13.301V28.8631C27.4899 29.3963 26.2383 29.6953 24.918 29.6953C20.1686 29.6953 16.3047 25.8314 16.3047 21.082Z" fill="white"/>
<g filter="url(#filter0_d_482_1517)">
<path d="M27.3789 42H22.457C21.7775 42 21.2266 41.4491 21.2266 40.7695V39.1679C18.9176 38.6975 16.708 37.7821 14.7399 36.4806L13.607 37.6134C13.1265 38.0939 12.3474 38.0939 11.8669 37.6134L8.38662 34.1331C7.90608 33.6527 7.90608 32.8735 8.38662 32.393L9.51939 31.2601C8.21788 29.292 7.3025 27.0824 6.83213 24.7734H5.23047C4.55092 24.7734 4 24.2225 4 23.543V18.6211C4 17.9415 4.55092 17.3906 5.23047 17.3906H6.83213C7.3025 15.0817 8.21788 12.8721 9.51939 10.9038L8.38654 9.77099C8.15579 9.54023 8.02618 9.22728 8.02618 8.90096C8.02618 8.57464 8.15579 8.26178 8.38654 8.03102L11.8669 4.55068C12.3474 4.07015 13.1265 4.07015 13.607 4.55068L14.7399 5.68345C16.708 4.38195 18.9176 3.46664 21.2266 2.99619V1.39453C21.2266 0.714984 21.7775 0.164062 22.457 0.164062H27.3789C28.0585 0.164062 28.6094 0.714984 28.6094 1.39453V10.6413C27.4542 10.2316 26.2118 10.0078 24.918 10.0078C18.8116 10.0078 13.8438 14.9757 13.8438 21.082C13.8438 27.1884 18.8116 32.1562 24.918 32.1562C26.2118 32.1562 27.4542 31.9325 28.6094 31.5228V40.7695C28.6094 41.4491 28.0585 42 27.3789 42V42Z" fill="white"/>
</g>
<defs>
<filter id="filter0_d_482_1517" x="0" y="0.164062" width="32.6094" height="49.8359" filterUnits="userSpaceOnUse" color-interpolation-filters="sRGB">
<feFlood flood-opacity="0" result="BackgroundImageFix"/>
<feColorMatrix in="SourceAlpha" type="matrix" values="0 0 0 0 0 0 0 0 0 0 0 0 0 0 0 0 0 0 127 0" result="hardAlpha"/>
<feOffset dy="4"/>
<feGaussianBlur stdDeviation="2"/>
<feComposite in2="hardAlpha" operator="out"/>
<feColorMatrix type="matrix" values="0 0 0 0 0 0 0 0 0 0 0 0 0 0 0 0 0 0 0.25 0"/>
<feBlend mode="normal" in2="BackgroundImageFix" result="effect1_dropShadow_482_1517"/>
<feBlend mode="normal" in="SourceGraphic" in2="effect1_dropShadow_482_1517" result="shape"/>
</filter>
</defs>
</svg>
